<?xml version="1.0" encoding="utf-8"?>
<!-- Generator: Adobe Illustrator 16.0.0, SVG Export Plug-In . SVG Version: 6.00 Build 0)  -->
<!DOCTYPE svg PUBLIC "-//W3C//DTD SVG 1.1//EN" "http://www.w3.org/Graphics/SVG/1.1/DTD/svg11.dtd">
<svg version="1.1" id="Layer_4" xmlns="http://www.w3.org/2000/svg" xmlns:xlink="http://www.w3.org/1999/xlink" x="0px" y="0px"
	 width="55px" height="55px" viewBox="0 0 55 55" enable-background="new 0 0 55 55" xml:space="preserve">
<path fill="#E4693E" d="M55,50c0,2.762-2.238,5-5,5H5c-2.762,0-5-2.238-5-5V5c0-2.762,2.238-5,5-5h45c2.762,0,5,2.238,5,5V50z"/>
<path fill="#FFFFFF" d="M40.414,17.586l-7-7C33.039,10.211,32.53,10,32,10H16c-1.104,0-2,0.896-2,2v31c0,1.104,0.896,2,2,2h23
	c1.104,0,2-0.896,2-2V19C41,18.47,40.789,17.961,40.414,17.586z M38,18h-5v-5L38,18z M39,43H16V12h15v7c0,0.553,0.447,1,1,1h7V43z"
	/>
</svg>
