<?xml version="1.0" encoding="utf-8"?>
<!-- Generator: Adobe Illustrator 16.0.0, SVG Export Plug-In . SVG Version: 6.00 Build 0)  -->
<!DOCTYPE svg PUBLIC "-//W3C//DTD SVG 1.1//EN" "http://www.w3.org/Graphics/SVG/1.1/DTD/svg11.dtd">
<svg version="1.1" id="Layer_4" xmlns="http://www.w3.org/2000/svg" xmlns:xlink="http://www.w3.org/1999/xlink" x="0px" y="0px"
	 width="55px" height="55px" viewBox="0 0 55 55" enable-background="new 0 0 55 55" xml:space="preserve">
<path fill="#7EC43F" d="M55,50c0,2.762-2.238,5-5,5H5c-2.761,0-5-2.238-5-5V5c0-2.762,2.239-5,5-5h45c2.762,0,5,2.238,5,5V50z"/>
<g>
	<rect x="12" y="37" fill="#FFFFFF" width="10" height="2"/>
	<path fill="#FFFFFF" d="M43,16H12c-2.75,0-5,2.25-5,5v6v12c0,2.75,2.25,5,5,5h31c2.75,0,5-2.25,5-5V27v-6C48,18.25,45.75,16,43,16z
		 M12,18h31c1.654,0,3,1.346,3,3H9C9,19.346,10.346,18,12,18z M46,39c0,1.654-1.346,3-3,3H12c-1.654,0-3-1.346-3-3V27h37V39z"/>
	<rect x="12" y="33" fill="#FFFFFF" width="12" height="2"/>
	<path fill="#FFFFFF" d="M36.145,34.31c1.252,0,2.146-0.933,2.146-2.185c0-1.242-0.941-2.125-2.133-2.125
		C34.953,30,34,30.922,34,32.148C34,33.389,34.882,34.31,36.145,34.31z M36.157,31.081c0.513,0,0.811,0.405,0.811,1.056
		c0,0.677-0.298,1.068-0.811,1.068s-0.835-0.368-0.835-1.068C35.322,31.474,35.645,31.081,36.157,31.081z"/>
	<path fill="#FFFFFF" d="M38.708,36.84c0,1.229,0.882,2.16,2.147,2.16C42.105,39,43,38.055,43,36.803
		c0-1.241-0.941-2.126-2.145-2.126C39.661,34.677,38.708,35.6,38.708,36.84z M41.677,36.827c0,0.662-0.299,1.058-0.821,1.058
		c-0.504,0-0.823-0.369-0.823-1.058c0-0.675,0.319-1.056,0.823-1.056C41.378,35.771,41.677,36.164,41.677,36.827z"/>
	<polygon fill="#FFFFFF" points="36.215,38.865 41.88,30.087 40.807,30.087 35.143,38.865 	"/>
</g>
</svg>
