<?xml version="1.0" encoding="utf-8"?>
<!-- Generator: Adobe Illustrator 16.0.0, SVG Export Plug-In . SVG Version: 6.00 Build 0)  -->
<!DOCTYPE svg PUBLIC "-//W3C//DTD SVG 1.1//EN" "http://www.w3.org/Graphics/SVG/1.1/DTD/svg11.dtd">
<svg version="1.1" id="Layer_4" xmlns="http://www.w3.org/2000/svg" xmlns:xlink="http://www.w3.org/1999/xlink" x="0px" y="0px"
	 width="55px" height="55px" viewBox="0 0 55 55" enable-background="new 0 0 55 55" xml:space="preserve">
<path fill="#378CE8" d="M55,50c0,2.762-2.238,5-5,5H5c-2.762,0-5-2.238-5-5V5c0-2.762,2.238-5,5-5h45c2.762,0,5,2.238,5,5V50z"/>
<path fill="#FFFFFF" d="M21.865,35.72V43H19.4v-7.28H15v-1.672h4.4v-4.313H15v-1.672h4.4V12h8.317
	c6.117,0,10.737,2.465,10.737,8.846v0.176c0,6.469-4.576,8.978-10.693,8.978h-5.896v4.049h11.266v1.672H21.865z M27.938,28.019
	c5.062,0,8.054-2.156,8.054-6.997v-0.176c0-5.104-3.213-6.821-8.142-6.821h-5.984v13.994H27.938z"/>
</svg>
