<?xml version="1.0" encoding="utf-8"?>
<!-- Generator: Adobe Illustrator 16.0.0, SVG Export Plug-In . SVG Version: 6.00 Build 0)  -->
<!DOCTYPE svg PUBLIC "-//W3C//DTD SVG 1.1//EN" "http://www.w3.org/Graphics/SVG/1.1/DTD/svg11.dtd">
<svg version="1.1" id="Layer_4" xmlns="http://www.w3.org/2000/svg" xmlns:xlink="http://www.w3.org/1999/xlink" x="0px" y="0px"
	 width="55px" height="55px" viewBox="0 0 55 55" enable-background="new 0 0 55 55" xml:space="preserve">
<path fill="#E4693E" d="M55,50c0,2.762-2.238,5-5,5H5c-2.762,0-5-2.238-5-5V5c0-2.761,2.238-5,5-5h45c2.762,0,5,2.239,5,5V50z"/>
<path fill="#FFFFFF" d="M46.838,23.373l-2.676-3.745C43.523,18.732,42.1,18,41,18h-9v-2c0-1.1-0.9-2-2-2H10c-1.1,0-2,0.9-2,2v22
	c0,1.1,0.9,2,2,2h3.101c0.464,2.282,2.48,4,4.899,4s4.436-1.718,4.899-4H30c0.365,0,0.704-0.106,1-0.279
	C31.296,39.894,31.635,40,32,40h2.101c0.464,2.282,2.48,4,4.899,4s4.436-1.718,4.899-4H46c1.1,0,2-0.9,2-2V27
	C48,25.9,47.477,24.268,46.838,23.373z M46,27v1h-8v-4h6.828l0.382,0.534C45.608,25.093,46,26.314,46,27z M18,42
	c-1.654,0-3-1.346-3-3s1.346-3,3-3s3,1.346,3,3S19.654,42,18,42z M22.899,38c-0.464-2.282-2.48-4-4.899-4s-4.436,1.718-4.899,4H10
	V16h20v4v18H22.899z M39,42c-1.654,0-3-1.346-3-3s1.346-3,3-3s3,1.346,3,3S40.654,42,39,42z M43.899,38c-0.464-2.282-2.48-4-4.899-4
	s-4.436,1.718-4.899,4H32V20h9c0.454,0,1.271,0.42,1.535,0.79L43.399,22H38c-1.103,0-2,0.897-2,2v4c0,1.103,0.897,2,2,2h8v8H43.899z
	"/>
</svg>
