<?xml version="1.0" encoding="utf-8"?>
<!-- Generator: Adobe Illustrator 16.0.0, SVG Export Plug-In . SVG Version: 6.00 Build 0)  -->
<!DOCTYPE svg PUBLIC "-//W3C//DTD SVG 1.1//EN" "http://www.w3.org/Graphics/SVG/1.1/DTD/svg11.dtd">
<svg version="1.1" id="Layer_4" xmlns="http://www.w3.org/2000/svg" xmlns:xlink="http://www.w3.org/1999/xlink" x="0px" y="0px"
	 width="55px" height="55px" viewBox="0 0 55 55" enable-background="new 0 0 55 55" xml:space="preserve">
<path fill="#E83587" d="M55,50c0,2.762-2.238,5-5,5H5c-2.762,0-5-2.238-5-5V5c0-2.761,2.238-5,5-5h45c2.762,0,5,2.239,5,5V50z"/>
<path fill="#FFFFFF" d="M44.946,25.25L43,20.241V18c0-0.55-0.45-1-1-1H13c-0.55,0-1,0.45-1,1v2l-1.945,5.25
	C9.812,26.217,10.4,27,11.367,27c0.214,0,0.426-0.044,0.633-0.114V42c0,0.55,0.45,1,1,1h17.999V30H38v13h4c0.55,0,1-0.45,1-1V26.887
	C43.206,26.957,43.419,27,43.632,27C44.6,27,45.188,26.217,44.946,25.25z M19.855,25.25L20.5,20H24l-0.645,5.25
	c-0.117,0.967-1,1.75-1.965,1.75C20.425,27,19.738,26.217,19.855,25.25z M13.941,25.25L15.25,20h3.5l-1.309,5.25
	C17.2,26.217,16.223,27,15.255,27C14.288,27,13.7,26.217,13.941,25.25z M27,38H15v-8h12V38z M29.249,25.25
	c0,0.967-0.782,1.75-1.75,1.75c-0.967,0-1.75-0.783-1.75-1.75V20h3.5V25.25z M33.608,27c-0.965,0-1.847-0.783-1.965-1.75L30.999,20
	h3.5l0.645,5.25C35.262,26.217,34.574,27,33.608,27z M39.744,27c-0.968,0-1.945-0.783-2.186-1.75L36.249,20h3.5l1.31,5.25
	C41.299,26.217,40.711,27,39.744,27z"/>
<path fill="#FFFFFF" d="M13,15h29c0.55,0,1-0.45,1-1v-1c0-0.55-0.45-1-1-1H13c-0.55,0-1,0.45-1,1v1C12,14.55,12.45,15,13,15z"/>
</svg>
